<svg width="157" height="73" viewBox="0 0 157 73" fill="none" xmlns="http://www.w3.org/2000/svg">
<path d="M42.5767 66.3622C42.5767 65.1862 42.8922 64.2664 43.5232 63.6027C44.1543 62.9357 44.9688 62.6023 45.9669 62.6023C46.6205 62.6023 47.2097 62.7585 47.7345 63.0711C48.2593 63.3836 48.6585 63.8202 48.9322 64.3808C49.2091 64.9382 49.3475 65.5713 49.3475 66.2801C49.3475 66.9986 49.2026 67.6413 48.9129 68.2084C48.6231 68.7755 48.2126 69.2056 47.6814 69.4988C47.1501 69.7887 46.577 69.9337 45.9621 69.9337C45.2956 69.9337 44.7 69.7726 44.1752 69.4504C43.6504 69.1283 43.2528 68.6885 42.9823 68.1311C42.7119 67.5737 42.5767 66.9841 42.5767 66.3622ZM43.5426 66.3767C43.5426 67.2305 43.7711 67.9039 44.2283 68.3969C44.6887 68.8866 45.2651 69.1315 45.9573 69.1315C46.6624 69.1315 47.2419 68.8834 47.6959 68.3872C48.153 67.891 48.3816 67.187 48.3816 66.2752C48.3816 65.6985 48.2834 65.1959 48.087 64.7674C47.8939 64.3357 47.6089 64.0022 47.2322 63.767C46.8588 63.5286 46.4386 63.4094 45.9718 63.4094C45.3085 63.4094 44.737 63.6381 44.2573 64.0956C43.7808 64.5499 43.5426 65.3103 43.5426 66.3767Z" fill="black"/>
<path d="M51.4242 62.9454C51.0861 63.0872 50.909 63.411 50.8929 63.9168H51.3469V64.9269H50.4148V64.1295C50.4148 63.701 50.4663 63.3884 50.5694 63.1919C50.7046 62.9341 50.9187 62.7392 51.2117 62.6071L51.4242 62.9454Z" fill="black"/>
<path d="M52.1921 69.8129V69.1073L55.4567 65.357C55.0865 65.3763 54.7597 65.386 54.4764 65.386H52.3852V64.6804H56.5772V65.2555L53.8003 68.5129L53.2642 69.1073C53.6538 69.0783 54.0192 69.0638 54.3605 69.0638H56.7317V69.8129H52.1921Z" fill="black"/>
<path d="M58.3979 69.8129H57.5913V62.7279H58.4606V65.2555C58.8277 64.7948 59.2961 64.5644 59.866 64.5644C60.1815 64.5644 60.4793 64.6289 60.7594 64.7577C61.0428 64.8834 61.2746 65.0622 61.4549 65.2942C61.6384 65.5229 61.7817 65.8 61.8847 66.1254C61.9877 66.4508 62.0392 66.7988 62.0392 67.1693C62.0392 68.0489 61.8219 68.7287 61.3873 69.2088C60.9526 69.6889 60.431 69.9289 59.8225 69.9289C59.2173 69.9289 58.7424 69.676 58.3979 69.1701V69.8129ZM58.3882 67.208C58.3882 67.8234 58.4719 68.268 58.6393 68.5419C58.913 68.9897 59.2833 69.2136 59.7501 69.2136C60.13 69.2136 60.4584 69.0493 60.7353 68.7207C61.0122 68.3888 61.1506 67.8959 61.1506 67.2418C61.1506 66.5717 61.017 66.0771 60.7498 65.7581C60.4858 65.4392 60.1654 65.2797 59.7887 65.2797C59.4088 65.2797 59.0804 65.4456 58.8035 65.7775C58.5266 66.1061 58.3882 66.5829 58.3882 67.208Z" fill="black"/>
<path d="M66.6127 68.1601L67.511 68.2712C67.3693 68.7964 67.1069 69.204 66.7238 69.4939C66.3407 69.7839 65.8513 69.9289 65.2556 69.9289C64.5055 69.9289 63.9098 69.6985 63.4688 69.2378C63.0309 68.7738 62.812 68.1246 62.812 67.2901C62.812 66.4267 63.0341 65.7565 63.4784 65.2797C63.9227 64.8028 64.499 64.5644 65.2073 64.5644C65.8931 64.5644 66.4533 64.798 66.888 65.2652C67.3226 65.7324 67.54 66.3896 67.54 67.237C67.54 67.2885 67.5384 67.3659 67.5351 67.469H63.7102C63.7424 68.0328 63.9018 68.4645 64.1883 68.7642C64.4749 69.0638 64.8323 69.2136 65.2605 69.2136C65.5792 69.2136 65.8513 69.1299 66.0766 68.9623C66.302 68.7948 66.4807 68.5274 66.6127 68.1601ZM63.7585 66.7537H66.6224C66.5837 66.322 66.4743 65.9982 66.294 65.7823C66.0171 65.4472 65.6581 65.2797 65.217 65.2797C64.8178 65.2797 64.4813 65.4134 64.2077 65.6808C63.9372 65.9482 63.7875 66.3059 63.7585 66.7537Z" fill="black"/>
<path d="M68.6121 69.8129V62.7279H69.4814V66.7682L71.5387 64.6804H72.664L70.7032 66.5846L72.862 69.8129H71.7899L70.0947 67.1887L69.4814 67.7783V69.8129H68.6121Z" fill="black"/>
<path d="M78.2033 69.0348L78.3289 69.8032C78.0842 69.8548 77.8653 69.8806 77.6721 69.8806C77.3566 69.8806 77.1119 69.8306 76.938 69.7307C76.7642 69.6309 76.6418 69.5004 76.571 69.3393C76.5001 69.175 76.4647 68.8318 76.4647 68.3099V65.357H75.8272V64.6804H76.4647V63.4094L77.3292 62.8874V64.6804H78.2033V65.357H77.3292V68.3582C77.3292 68.6063 77.3437 68.7658 77.3727 68.8367C77.4049 68.9075 77.4548 68.9639 77.5224 69.0058C77.5932 69.0477 77.693 69.0686 77.8218 69.0686C77.9184 69.0686 78.0456 69.0574 78.2033 69.0348Z" fill="black"/>
<path d="M79.063 63.7283V62.7279H79.9323V63.7283H79.063ZM79.063 69.8129V64.6804H79.9323V69.8129H79.063Z" fill="black"/>
<path d="M81.241 69.8129V62.7279H82.1103V69.8129H81.241Z" fill="black"/>
<path d="M83.4674 63.7283V62.7279H84.3367V63.7283H83.4674ZM83.4674 69.8129V64.6804H84.3367V69.8129H83.4674Z" fill="black"/>
<path d="M85.6648 69.8129V64.6804H86.4472V65.4102C86.8238 64.8463 87.368 64.5644 88.0795 64.5644C88.3886 64.5644 88.6719 64.6208 88.9295 64.7336C89.1903 64.8431 89.3851 64.9881 89.5138 65.1685C89.6426 65.3489 89.7328 65.5632 89.7843 65.8113C89.8165 65.9724 89.8326 66.2543 89.8326 66.657V69.8129H88.9633V66.6909C88.9633 66.3365 88.9295 66.0723 88.8619 65.8983C88.7943 65.7211 88.6735 65.5809 88.4997 65.4778C88.329 65.3715 88.1278 65.3183 87.896 65.3183C87.5257 65.3183 87.2054 65.4359 86.9349 65.6711C86.6677 65.9063 86.5341 66.3526 86.5341 67.0098V69.8129H85.6648Z" fill="black"/>
<path d="M91.1752 63.7283V62.7279H92.0445V63.7283H91.1752ZM91.1752 69.8129V64.6804H92.0445V69.8129H91.1752Z" fill="black"/>
<path d="M93.3725 69.8129V64.6804H94.1549V65.4102C94.5316 64.8463 95.0757 64.5644 95.7873 64.5644C96.0963 64.5644 96.3797 64.6208 96.6372 64.7336C96.898 64.8431 97.0928 64.9881 97.2216 65.1685C97.3504 65.3489 97.4405 65.5632 97.492 65.8113C97.5242 65.9724 97.5403 66.2543 97.5403 66.657V69.8129H96.671V66.6909C96.671 66.3365 96.6372 66.0723 96.5696 65.8983C96.502 65.7211 96.3813 65.5809 96.2074 65.4778C96.0368 65.3715 95.8356 65.3183 95.6037 65.3183C95.2335 65.3183 94.9131 65.4359 94.6427 65.6711C94.3755 65.9063 94.2418 66.3526 94.2418 67.0098V69.8129H93.3725Z" fill="black"/>
<path d="M98.7187 70.2382L99.5639 70.3638C99.5993 70.6248 99.6975 70.8149 99.8585 70.9341C100.074 71.0952 100.369 71.1758 100.742 71.1758C101.145 71.1758 101.455 71.0952 101.674 70.9341C101.893 70.773 102.041 70.5475 102.119 70.2575C102.164 70.0803 102.185 69.7082 102.181 69.1411C101.801 69.589 101.328 69.8129 100.762 69.8129C100.056 69.8129 99.5107 69.5584 99.1244 69.0493C98.738 68.5402 98.5449 67.9297 98.5449 67.2177C98.5449 66.7279 98.6334 66.2769 98.8105 65.8645C98.9876 65.4488 99.2435 65.1283 99.5784 64.9027C99.9164 64.6772 100.312 64.5644 100.766 64.5644C101.372 64.5644 101.871 64.8093 102.264 65.299V64.6804H103.065V69.117C103.065 69.916 102.983 70.4814 102.819 70.8133C102.658 71.1484 102.4 71.4126 102.046 71.6059C101.695 71.7992 101.262 71.8959 100.747 71.8959C100.135 71.8959 99.6411 71.7573 99.2644 71.4802C98.8877 71.2064 98.7058 70.7924 98.7187 70.2382ZM99.4383 67.1548C99.4383 67.8282 99.5719 68.3195 99.8391 68.6289C100.106 68.9382 100.441 69.0928 100.844 69.0928C101.243 69.0928 101.578 68.9398 101.848 68.6337C102.119 68.3244 102.254 67.8411 102.254 67.1838C102.254 66.5556 102.114 66.0819 101.834 65.763C101.557 65.444 101.222 65.2845 100.829 65.2845C100.443 65.2845 100.114 65.4424 99.844 65.7581C99.5735 66.0707 99.4383 66.5362 99.4383 67.1548Z" fill="black"/>
<path d="M107.141 63.7283V62.7279H108.011V63.7283H107.141ZM107.141 69.8129V64.6804H108.011V69.8129H107.141Z" fill="black"/>
<path d="M108.88 69.8129V69.1073L112.145 65.357C111.774 65.3763 111.447 65.386 111.164 65.386H109.073V64.6804H113.265V65.2555L110.488 68.5129L109.952 69.1073C110.342 69.0783 110.707 69.0638 111.048 69.0638H113.419V69.8129H108.88Z" fill="black"/>
<path d="M113.96 67.2467C113.96 66.2962 114.224 65.5922 114.752 65.1347C115.193 64.7545 115.731 64.5644 116.365 64.5644C117.071 64.5644 117.647 64.7964 118.094 65.2604C118.542 65.7211 118.766 66.359 118.766 67.1742C118.766 67.8347 118.666 68.355 118.466 68.7352C118.27 69.1121 117.982 69.4053 117.602 69.6148C117.225 69.8242 116.813 69.9289 116.365 69.9289C115.647 69.9289 115.066 69.6985 114.622 69.2378C114.181 68.7771 113.96 68.1133 113.96 67.2467ZM114.854 67.2467C114.854 67.9039 114.997 68.3969 115.284 68.7255C115.57 69.0509 115.931 69.2136 116.365 69.2136C116.797 69.2136 117.156 69.0493 117.442 68.7207C117.729 68.392 117.872 67.891 117.872 67.2177C117.872 66.5829 117.727 66.1029 117.438 65.7775C117.151 65.4488 116.794 65.2845 116.365 65.2845C115.931 65.2845 115.57 65.4472 115.284 65.7726C114.997 66.098 114.854 66.5894 114.854 67.2467Z" fill="black"/>
<path d="M119.789 69.8129V62.7279H120.659V65.27C121.064 64.7996 121.576 64.5644 122.195 64.5644C122.574 64.5644 122.904 64.6401 123.185 64.7916C123.465 64.9398 123.664 65.146 123.783 65.4102C123.906 65.6744 123.967 66.0578 123.967 66.5604V69.8129H123.098V66.5604C123.098 66.1254 123.003 65.8097 122.813 65.6131C122.626 65.4134 122.36 65.3135 122.016 65.3135C121.758 65.3135 121.515 65.3812 121.287 65.5165C121.061 65.6486 120.9 65.829 120.804 66.0578C120.707 66.2865 120.659 66.6023 120.659 67.005V69.8129H119.789Z" fill="black"/>
<path d="M125.276 69.8129V62.7279H126.145V69.8129H125.276Z" fill="black"/>
<path d="M127.502 63.7283V62.7279H128.371V63.7283H127.502ZM127.502 69.8129V64.6804H128.371V69.8129H127.502Z" fill="black"/>
<path d="M132.433 69.8129V62.7279H133.302V69.8129H132.433Z" fill="black"/>
<path d="M138.016 69.8129V69.059C137.617 69.6389 137.074 69.9289 136.388 69.9289C136.086 69.9289 135.802 69.8709 135.538 69.7549C135.277 69.6389 135.083 69.4939 134.954 69.3199C134.828 69.1427 134.74 68.9269 134.688 68.6723C134.653 68.5016 134.635 68.2309 134.635 67.8604V64.6804H135.504V67.527C135.504 67.9813 135.522 68.2873 135.558 68.4452C135.612 68.674 135.728 68.8544 135.905 68.9865C136.082 69.1154 136.301 69.1798 136.562 69.1798C136.823 69.1798 137.068 69.1138 137.296 68.9817C137.525 68.8463 137.686 68.6643 137.779 68.4355C137.876 68.2036 137.924 67.8685 137.924 67.4303V64.6804H138.793V69.8129H138.016Z" fill="black"/>
<path d="M140.001 70.2382L140.846 70.3638C140.881 70.6248 140.979 70.8149 141.14 70.9341C141.356 71.0952 141.651 71.1758 142.024 71.1758C142.427 71.1758 142.737 71.0952 142.956 70.9341C143.175 70.773 143.323 70.5475 143.401 70.2575C143.446 70.0803 143.467 69.7082 143.463 69.1411C143.083 69.589 142.61 69.8129 142.043 69.8129C141.338 69.8129 140.793 69.5584 140.406 69.0493C140.02 68.5402 139.827 67.9297 139.827 67.2177C139.827 66.7279 139.915 66.2769 140.092 65.8645C140.269 65.4488 140.525 65.1283 140.86 64.9027C141.198 64.6772 141.594 64.5644 142.048 64.5644C142.654 64.5644 143.153 64.8093 143.545 65.299V64.6804H144.347V69.117C144.347 69.916 144.265 70.4814 144.101 70.8133C143.94 71.1484 143.682 71.4126 143.328 71.6059C142.977 71.7992 142.544 71.8959 142.029 71.8959C141.417 71.8959 140.923 71.7573 140.546 71.4802C140.17 71.2064 139.988 70.7924 140.001 70.2382ZM140.72 67.1548C140.72 67.8282 140.854 68.3195 141.121 68.6289C141.388 68.9382 141.723 69.0928 142.126 69.0928C142.525 69.0928 142.86 68.9398 143.13 68.6337C143.401 68.3244 143.536 67.8411 143.536 67.1838C143.536 66.5556 143.396 66.0819 143.116 65.763C142.839 65.444 142.504 65.2845 142.111 65.2845C141.725 65.2845 141.396 65.4424 141.126 65.7581C140.855 66.0707 140.72 66.5362 140.72 67.1548Z" fill="black"/>
<path d="M146.641 62.9454C146.303 63.0872 146.126 63.411 146.11 63.9168H146.564V64.9269H145.632V64.1295C145.632 63.701 145.683 63.3884 145.786 63.1919C145.922 62.9341 146.136 62.7392 146.429 62.6071L146.641 62.9454Z" fill="black"/>
<path d="M151.215 69.1798C150.893 69.4537 150.582 69.647 150.282 69.7597C149.986 69.8725 149.668 69.9289 149.326 69.9289C148.763 69.9289 148.33 69.792 148.027 69.5181C147.724 69.241 147.573 68.8882 147.573 68.4597C147.573 68.2084 147.63 67.9796 147.742 67.7734C147.858 67.564 148.008 67.3965 148.191 67.2708C148.378 67.1452 148.587 67.0501 148.819 66.9857C148.99 66.9406 149.247 66.8971 149.592 66.8552C150.294 66.7714 150.811 66.6715 151.142 66.5556C151.145 66.4363 151.147 66.3606 151.147 66.3284C151.147 65.974 151.065 65.7243 150.901 65.5793C150.678 65.3828 150.348 65.2845 149.911 65.2845C149.502 65.2845 149.199 65.357 149.003 65.502C148.81 65.6438 148.666 65.8967 148.573 66.2607L147.723 66.1448C147.8 65.7807 147.927 65.4875 148.104 65.2652C148.281 65.0396 148.537 64.8673 148.872 64.7481C149.207 64.6256 149.595 64.5644 150.036 64.5644C150.474 64.5644 150.83 64.616 151.103 64.7191C151.377 64.8222 151.578 64.9527 151.707 65.1105C151.836 65.2652 151.926 65.4617 151.978 65.7001C152.007 65.8483 152.021 66.1158 152.021 66.5024V67.6623C152.021 68.471 152.039 68.9833 152.074 69.1991C152.113 69.4118 152.187 69.6164 152.296 69.8129H151.388C151.298 69.6325 151.24 69.4214 151.215 69.1798ZM151.142 67.237C150.827 67.3659 150.353 67.4754 149.722 67.5656C149.365 67.6172 149.112 67.6752 148.964 67.7396C148.816 67.804 148.702 67.8991 148.621 68.0247C148.541 68.1472 148.5 68.2841 148.5 68.4355C148.5 68.6675 148.587 68.8608 148.761 69.0155C148.938 69.1701 149.196 69.2475 149.534 69.2475C149.869 69.2475 150.167 69.175 150.427 69.03C150.688 68.8818 150.88 68.6804 151.002 68.4259C151.095 68.2293 151.142 67.9394 151.142 67.556V67.237Z" fill="black"/>
<path d="M155.271 69.0348L155.397 69.8032C155.152 69.8548 154.933 69.8806 154.74 69.8806C154.425 69.8806 154.18 69.8306 154.006 69.7307C153.832 69.6309 153.71 69.5004 153.639 69.3393C153.568 69.175 153.533 68.8318 153.533 68.3099V65.357H152.895V64.6804H153.533V63.4094L154.397 62.8874V64.6804H155.271V65.357H154.397V68.3582C154.397 68.6063 154.412 68.7658 154.441 68.8367C154.473 68.9075 154.523 68.9639 154.59 69.0058C154.661 69.0477 154.761 69.0686 154.89 69.0686C154.986 69.0686 155.114 69.0574 155.271 69.0348Z" fill="black"/>
<path d="M156.131 63.7283V62.7279H157V63.7283H156.131ZM156.131 69.8129V64.6804H157V69.8129H156.131Z" fill="black"/>
<path d="M51.4444 47.6233H61.6322V53.5634H43.4036V47.8339L53.1704 35.9959H43.4878V30.0558H61.4217V35.7852L51.4444 47.6233Z" fill="black"/>
<path d="M77.1284 53.9004C74.827 53.9004 72.7501 53.4089 70.8978 52.4259C69.0735 51.4429 67.6282 50.0387 66.5617 48.2131C65.5233 46.3875 65.004 44.253 65.004 41.8096C65.004 39.3942 65.5373 37.2738 66.6038 35.4482C67.6703 33.5946 69.1297 32.1762 70.982 31.1933C72.8343 30.2103 74.9112 29.7188 77.2126 29.7188C79.514 29.7188 81.5908 30.2103 83.4431 31.1933C85.2955 32.1762 86.7549 33.5946 87.8214 35.4482C88.8879 37.2738 89.4211 39.3942 89.4211 41.8096C89.4211 44.225 88.8738 46.3595 87.7793 48.2131C86.7128 50.0387 85.2393 51.4429 83.3589 52.4259C81.5066 53.4089 79.4298 53.9004 77.1284 53.9004ZM77.1284 47.6654C78.5036 47.6654 79.6683 47.1599 80.6225 46.1488C81.6048 45.1377 82.096 43.6913 82.096 41.8096C82.096 39.9279 81.6189 38.4815 80.6646 37.4704C79.7385 36.4593 78.5878 35.9538 77.2126 35.9538C75.8093 35.9538 74.6446 36.4593 73.7184 37.4704C72.7922 38.4534 72.3292 39.8998 72.3292 41.8096C72.3292 43.6913 72.7782 45.1377 73.6763 46.1488C74.6025 47.1599 75.7532 47.6654 77.1284 47.6654Z" fill="black"/>
<path d="M108.522 29.803C111.216 29.803 113.377 30.7018 115.005 32.4992C116.633 34.2686 117.447 36.7121 117.447 39.8296V53.5634H110.29V40.7985C110.29 39.2257 109.883 38.004 109.069 37.1334C108.255 36.2627 107.161 35.8274 105.786 35.8274C104.41 35.8274 103.316 36.2627 102.502 37.1334C101.688 38.004 101.281 39.2257 101.281 40.7985V53.5634H94.0822V22.3884H101.281V33.2154C102.011 32.1762 103.007 31.3477 104.27 30.7298C105.533 30.112 106.95 29.803 108.522 29.803Z" fill="black"/>
<path d="M130.49 22.3884V53.5634H123.291V22.3884H130.49Z" fill="black"/>
<path d="M140.169 27.6123C138.906 27.6123 137.868 27.2472 137.054 26.517C136.268 25.7587 135.875 24.8319 135.875 23.7365C135.875 22.6131 136.268 21.6863 137.054 20.9561C137.868 20.1978 138.906 19.8186 140.169 19.8186C141.404 19.8186 142.415 20.1978 143.201 20.9561C144.014 21.6863 144.421 22.6131 144.421 23.7365C144.421 24.8319 144.014 25.7587 143.201 26.517C142.415 27.2472 141.404 27.6123 140.169 27.6123ZM143.748 30.0558V53.5634H136.549V30.0558H143.748Z" fill="black"/>
<path fill-rule="evenodd" clip-rule="evenodd" d="M9.90328 72.22H29.3533C33.0707 72.22 36.0843 69.2042 36.0843 65.4841V24.1335C36.0843 22.8935 35.0798 21.8882 33.8407 21.8882H21.4811C20.2419 21.8882 19.2374 22.8935 19.2374 24.1335V59.0759C19.2374 59.5398 19.1677 60.0048 19.0146 60.4427C18.1555 62.9002 17.153 64.5158 16.1812 65.5759C15.6543 66.1507 15.1364 66.5622 14.6553 66.8559C14.1251 67.1797 13.6395 67.3604 13.2357 67.4593C12.5238 67.6337 12.0661 67.5535 12.0661 67.5535L3.75641 36.6656H0L9.90328 72.22ZM20.2312 67.7294H29.3533C30.5924 67.7294 31.597 66.7242 31.597 65.4841V26.3788H23.7248V59.0759C23.7248 59.9834 23.5891 60.9564 23.2503 61.9255C22.4096 64.3303 21.3839 66.2411 20.2312 67.7294Z" fill="#0049D7"/>
<path d="M35.4014 7.77753C35.4014 12.0729 31.8339 15.5551 27.4332 15.5551C23.0325 15.5551 19.4651 12.0729 19.4651 7.77753C19.4651 3.48212 23.0325 0 27.4332 0C31.8339 0 35.4014 3.48212 35.4014 7.77753Z" fill="#0049D7"/>
<path d="M8.42348 31.8879H4.66706C7.55077 42.7764 13.432 64.6646 13.432 64.6646C13.432 64.6646 10.2068 42.9987 8.42348 31.8879Z" fill="#0049D7"/>
<path d="M12.5214 27.7769H9.33412L15.481 61.7758L12.5214 27.7769Z" fill="#0049D7"/>
<path d="M18.2129 25.2214H14.115L17.0746 59.5537L18.2129 25.2214Z" fill="#0049D7"/>
</svg>
