<svg width="100" height="46" viewBox="0 0 100 46" fill="none" xmlns="http://www.w3.org/2000/svg">
<path d="M27.1189 42.2688C27.1189 41.5198 27.3199 40.9339 27.7218 40.5111C28.1237 40.0863 28.6426 39.8739 29.2783 39.8739C29.6946 39.8739 30.0699 39.9734 30.4041 40.1725C30.7384 40.3716 30.9927 40.6496 31.167 41.0067C31.3434 41.3617 31.4315 41.765 31.4315 42.2165C31.4315 42.6741 31.3393 43.0835 31.1547 43.4447C30.9701 43.8059 30.7087 44.0798 30.3703 44.2666C30.0319 44.4513 29.6669 44.5436 29.2752 44.5436C28.8507 44.5436 28.4713 44.441 28.1371 44.2358C27.8028 44.0306 27.5495 43.7505 27.3773 43.3954C27.205 43.0404 27.1189 42.6649 27.1189 42.2688ZM27.7341 42.278C27.7341 42.8219 27.8797 43.2508 28.1709 43.5647C28.4642 43.8767 28.8312 44.0326 29.2721 44.0326C29.7213 44.0326 30.0904 43.8746 30.3795 43.5586C30.6707 43.2425 30.8163 42.7942 30.8163 42.2134C30.8163 41.8461 30.7538 41.5259 30.6287 41.253C30.5056 40.978 30.3242 40.7656 30.0842 40.6158C29.8463 40.4639 29.5787 40.388 29.2814 40.388C28.8589 40.388 28.4949 40.5337 28.1894 40.8251C27.8859 41.1145 27.7341 41.5988 27.7341 42.278Z" fill="black"/>
<path d="M32.7542 40.0925C32.5389 40.1828 32.4261 40.389 32.4159 40.7112H32.705V41.3546H32.1114V40.8466C32.1114 40.5737 32.1442 40.3746 32.2098 40.2495C32.2959 40.0853 32.4323 39.9611 32.6189 39.877L32.7542 40.0925Z" fill="black"/>
<path d="M33.2433 44.4667V44.0172L35.3228 41.6285C35.0869 41.6408 34.8788 41.647 34.6983 41.647H33.3664V41.1976H36.0364V41.5639L34.2677 43.6386L33.9262 44.0172C34.1744 43.9988 34.4071 43.9895 34.6245 43.9895H36.1348V44.4667H33.2433Z" fill="black"/>
<path d="M37.1961 44.4667H36.6824V39.954H37.2361V41.5639C37.4699 41.2704 37.7682 41.1237 38.1312 41.1237C38.3322 41.1237 38.5219 41.1647 38.7003 41.2468C38.8807 41.3269 39.0284 41.4407 39.1432 41.5885C39.2601 41.7342 39.3514 41.9107 39.417 42.118C39.4826 42.3252 39.5154 42.5469 39.5154 42.7829C39.5154 43.3431 39.377 43.7761 39.1002 44.0819C38.8233 44.3877 38.4911 44.5405 38.1035 44.5405C37.718 44.5405 37.4155 44.3795 37.1961 44.0573V44.4667ZM37.1899 42.8075C37.1899 43.1995 37.2433 43.4827 37.3499 43.6571C37.5242 43.9423 37.76 44.085 38.0574 44.085C38.2994 44.085 38.5085 43.9803 38.6849 43.771C38.8613 43.5596 38.9494 43.2456 38.9494 42.829C38.9494 42.4022 38.8643 42.0872 38.6941 41.884C38.526 41.6808 38.3219 41.5793 38.082 41.5793C37.84 41.5793 37.6308 41.685 37.4545 41.8963C37.2781 42.1056 37.1899 42.4094 37.1899 42.8075Z" fill="black"/>
<path d="M42.4285 43.4139L43.0006 43.4847C42.9104 43.8192 42.7433 44.0788 42.4992 44.2635C42.2552 44.4482 41.9435 44.5405 41.5641 44.5405C41.0863 44.5405 40.7069 44.3938 40.426 44.1004C40.1471 43.8048 40.0076 43.3913 40.0076 42.8598C40.0076 42.3098 40.1491 41.883 40.4321 41.5793C40.7151 41.2756 41.0822 41.1237 41.5333 41.1237C41.9701 41.1237 42.327 41.2725 42.6038 41.57C42.8807 41.8676 43.0191 42.2862 43.0191 42.826C43.0191 42.8588 43.0181 42.908 43.016 42.9737H40.5798C40.6003 43.3328 40.7018 43.6078 40.8843 43.7987C41.0668 43.9895 41.2944 44.085 41.5672 44.085C41.7702 44.085 41.9435 44.0316 42.087 43.9249C42.2306 43.8182 42.3444 43.6479 42.4285 43.4139ZM40.6105 42.5181H42.4346C42.41 42.2431 42.3403 42.0369 42.2255 41.8994C42.0491 41.686 41.8204 41.5793 41.5395 41.5793C41.2852 41.5793 41.0709 41.6644 40.8966 41.8348C40.7243 42.0051 40.629 42.2329 40.6105 42.5181Z" fill="black"/>
<path d="M43.702 44.4667V39.954H44.2557V42.5274L45.5661 41.1976H46.2828L45.0339 42.4104L46.4089 44.4667H45.726L44.6463 42.7952L44.2557 43.1707V44.4667H43.702Z" fill="black"/>
<path d="M49.811 43.9711L49.891 44.4605C49.7352 44.4933 49.5957 44.5098 49.4727 44.5098C49.2717 44.5098 49.1158 44.478 49.0051 44.4143C48.8944 44.3507 48.8164 44.2676 48.7713 44.165C48.7262 44.0603 48.7036 43.8418 48.7036 43.5093V41.6285H48.2976V41.1976H48.7036V40.388L49.2543 40.0555V41.1976H49.811V41.6285H49.2543V43.5401C49.2543 43.6981 49.2635 43.7997 49.2819 43.8449C49.3025 43.89 49.3342 43.9259 49.3773 43.9526C49.4224 43.9793 49.486 43.9926 49.568 43.9926C49.6295 43.9926 49.7105 43.9854 49.811 43.9711Z" fill="black"/>
<path d="M50.3586 40.5911V39.954H50.9123V40.5911H50.3586ZM50.3586 44.4667V41.1976H50.9123V44.4667H50.3586Z" fill="black"/>
<path d="M51.7459 44.4667V39.954H52.2996V44.4667H51.7459Z" fill="black"/>
<path d="M53.1639 40.5911V39.954H53.7176V40.5911H53.1639ZM53.1639 44.4667V41.1976H53.7176V44.4667H53.1639Z" fill="black"/>
<path d="M54.5636 44.4667V41.1976H55.0619V41.6624C55.3018 41.3033 55.6484 41.1237 56.1016 41.1237C56.2985 41.1237 56.4789 41.1596 56.643 41.2314C56.8091 41.3012 56.9332 41.3935 57.0152 41.5085C57.0972 41.6234 57.1546 41.7599 57.1874 41.9179C57.2079 42.0205 57.2182 42.2 57.2182 42.4566V44.4667H56.6645V42.4781C56.6645 42.2524 56.643 42.0841 56.5999 41.9733C56.5568 41.8604 56.4799 41.7711 56.3692 41.7055C56.2605 41.6378 56.1323 41.6039 55.9847 41.6039C55.7489 41.6039 55.5448 41.6788 55.3726 41.8286C55.2023 41.9784 55.1172 42.2626 55.1172 42.6813V44.4667H54.5636Z" fill="black"/>
<path d="M58.0734 40.5911V39.954H58.627V40.5911H58.0734ZM58.0734 44.4667V41.1976H58.627V44.4667H58.0734Z" fill="black"/>
<path d="M59.473 44.4667V41.1976H59.9713V41.6624C60.2112 41.3033 60.5578 41.1237 61.011 41.1237C61.2079 41.1237 61.3883 41.1596 61.5524 41.2314C61.7185 41.3012 61.8426 41.3935 61.9246 41.5085C62.0066 41.6234 62.064 41.7599 62.0968 41.9179C62.1173 42.0205 62.1276 42.2 62.1276 42.4566V44.4667H61.5739V42.4781C61.5739 42.2524 61.5524 42.0841 61.5093 41.9733C61.4662 41.8604 61.3893 41.7711 61.2786 41.7055C61.1699 41.6378 61.0418 41.6039 60.8941 41.6039C60.6583 41.6039 60.4542 41.6788 60.282 41.8286C60.1118 41.9784 60.0266 42.2626 60.0266 42.6813V44.4667H59.473Z" fill="black"/>
<path d="M62.8782 44.7376L63.4165 44.8176C63.439 44.9838 63.5016 45.1049 63.6041 45.1808C63.7415 45.2834 63.9291 45.3347 64.167 45.3347C64.4234 45.3347 64.6213 45.2834 64.7607 45.1808C64.9002 45.0782 64.9945 44.9346 65.0437 44.7499C65.0724 44.637 65.0858 44.4 65.0837 44.0388C64.8417 44.324 64.5403 44.4667 64.1793 44.4667C63.7302 44.4667 63.3826 44.3045 63.1366 43.9803C62.8905 43.6561 62.7674 43.2672 62.7674 42.8136C62.7674 42.5017 62.8238 42.2144 62.9366 41.9517C63.0494 41.687 63.2124 41.4828 63.4257 41.3392C63.641 41.1955 63.8933 41.1237 64.1824 41.1237C64.5679 41.1237 64.8858 41.2797 65.136 41.5916V41.1976H65.6466V44.0234C65.6466 44.5323 65.5943 44.8925 65.4897 45.1039C65.3872 45.3173 65.2232 45.4856 64.9976 45.6087C64.774 45.7318 64.4982 45.7934 64.1701 45.7934C63.7805 45.7934 63.4657 45.7052 63.2258 45.5287C62.9858 45.3542 62.87 45.0905 62.8782 44.7376ZM63.3365 42.7736C63.3365 43.2025 63.4216 43.5155 63.5918 43.7125C63.762 43.9095 63.9753 44.008 64.2316 44.008C64.4859 44.008 64.6992 43.9105 64.8715 43.7156C65.0437 43.5186 65.1298 43.2107 65.1298 42.7921C65.1298 42.3919 65.0406 42.0903 64.8622 41.8871C64.6859 41.6839 64.4726 41.5823 64.2224 41.5823C63.9763 41.5823 63.7671 41.6829 63.5949 41.884C63.4226 42.0831 63.3365 42.3796 63.3365 42.7736Z" fill="black"/>
<path d="M68.2428 40.5911V39.954H68.7965V40.5911H68.2428ZM68.2428 44.4667V41.1976H68.7965V44.4667H68.2428Z" fill="black"/>
<path d="M69.3502 44.4667V44.0172L71.4296 41.6285C71.1938 41.6408 70.9856 41.647 70.8052 41.647H69.4732V41.1976H72.1433V41.5639L70.3745 43.6386L70.0331 44.0172C70.2812 43.9988 70.514 43.9895 70.7314 43.9895H72.2417V44.4667H69.3502Z" fill="black"/>
<path d="M72.5862 42.8321C72.5862 42.2267 72.7544 41.7783 73.0907 41.4869C73.3717 41.2448 73.7141 41.1237 74.1181 41.1237C74.5672 41.1237 74.9343 41.2714 75.2193 41.567C75.5044 41.8604 75.6469 42.2667 75.6469 42.7859C75.6469 43.2066 75.5833 43.5381 75.4562 43.7802C75.3311 44.0203 75.1476 44.2071 74.9056 44.3405C74.6656 44.4739 74.4032 44.5405 74.1181 44.5405C73.6608 44.5405 73.2906 44.3938 73.0076 44.1004C72.7267 43.8069 72.5862 43.3842 72.5862 42.8321ZM73.1553 42.8321C73.1553 43.2508 73.2466 43.5647 73.4291 43.7741C73.6116 43.9813 73.8413 44.085 74.1181 44.085C74.3929 44.085 74.6216 43.9803 74.8041 43.771C74.9866 43.5617 75.0778 43.2425 75.0778 42.8136C75.0778 42.4094 74.9856 42.1036 74.801 41.8963C74.6185 41.687 74.3909 41.5823 74.1181 41.5823C73.8413 41.5823 73.6116 41.686 73.4291 41.8932C73.2466 42.1005 73.1553 42.4135 73.1553 42.8321Z" fill="black"/>
<path d="M76.299 44.4667V39.954H76.8527V41.5731C77.1111 41.2735 77.4372 41.1237 77.8309 41.1237C78.0729 41.1237 78.2831 41.1719 78.4615 41.2684C78.6399 41.3628 78.7671 41.4941 78.8429 41.6624C78.9209 41.8307 78.9598 42.0749 78.9598 42.395V44.4667H78.4061V42.395C78.4061 42.118 78.3456 41.9168 78.2247 41.7917C78.1057 41.6644 77.9365 41.6008 77.7171 41.6008C77.553 41.6008 77.3982 41.6439 77.2526 41.7301C77.1091 41.8142 77.0065 41.9292 76.945 42.0749C76.8835 42.2206 76.8527 42.4217 76.8527 42.6782V44.4667H76.299Z" fill="black"/>
<path d="M79.7934 44.4667V39.954H80.3471V44.4667H79.7934Z" fill="black"/>
<path d="M81.2115 40.5911V39.954H81.7652V40.5911H81.2115ZM81.2115 44.4667V41.1976H81.7652V44.4667H81.2115Z" fill="black"/>
<path d="M84.3522 44.4667V39.954H84.9059V44.4667H84.3522Z" fill="black"/>
<path d="M87.9081 44.4667V43.9865C87.6538 44.3559 87.3083 44.5405 86.8715 44.5405C86.6787 44.5405 86.4982 44.5036 86.3301 44.4297C86.164 44.3559 86.0399 44.2635 85.9579 44.1527C85.8779 44.0398 85.8215 43.9023 85.7887 43.7402C85.7661 43.6314 85.7549 43.4591 85.7549 43.2231V41.1976H86.3086V43.0107C86.3086 43.3 86.3198 43.495 86.3424 43.5955C86.3773 43.7412 86.4511 43.8562 86.5639 43.9403C86.6767 44.0224 86.8161 44.0634 86.9822 44.0634C87.1483 44.0634 87.3042 44.0214 87.4498 43.9372C87.5954 43.851 87.6979 43.7351 87.7574 43.5894C87.8189 43.4416 87.8497 43.2282 87.8497 42.9491V41.1976H88.4034V44.4667H87.9081Z" fill="black"/>
<path d="M89.1724 44.7376L89.7107 44.8176C89.7332 44.9838 89.7958 45.1049 89.8983 45.1808C90.0357 45.2834 90.2234 45.3347 90.4613 45.3347C90.7176 45.3347 90.9155 45.2834 91.0549 45.1808C91.1944 45.0782 91.2887 44.9346 91.3379 44.7499C91.3666 44.637 91.38 44.4 91.3779 44.0388C91.1359 44.324 90.8345 44.4667 90.4735 44.4667C90.0244 44.4667 89.6769 44.3045 89.4308 43.9803C89.1847 43.6561 89.0616 43.2672 89.0616 42.8136C89.0616 42.5017 89.118 42.2144 89.2308 41.9517C89.3436 41.687 89.5066 41.4828 89.7199 41.3392C89.9352 41.1955 90.1875 41.1237 90.4766 41.1237C90.8622 41.1237 91.18 41.2797 91.4302 41.5916V41.1976H91.9408V44.0234C91.9408 44.5323 91.8885 44.8925 91.784 45.1039C91.6814 45.3173 91.5174 45.4856 91.2918 45.6087C91.0683 45.7318 90.7924 45.7934 90.4643 45.7934C90.0747 45.7934 89.7599 45.7052 89.52 45.5287C89.28 45.3542 89.1642 45.0905 89.1724 44.7376ZM89.6307 42.7736C89.6307 43.2025 89.7158 43.5155 89.886 43.7125C90.0562 43.9095 90.2695 44.008 90.5258 44.008C90.7801 44.008 90.9934 43.9105 91.1657 43.7156C91.3379 43.5186 91.4241 43.2107 91.4241 42.7921C91.4241 42.3919 91.3348 42.0903 91.1564 41.8871C90.9801 41.6839 90.7668 41.5823 90.5166 41.5823C90.2705 41.5823 90.0614 41.6829 89.8891 41.884C89.7168 42.0831 89.6307 42.3796 89.6307 42.7736Z" fill="black"/>
<path d="M93.402 40.0925C93.1866 40.1828 93.0738 40.389 93.0636 40.7112H93.3527V41.3546H92.7591V40.8466C92.7591 40.5737 92.7919 40.3746 92.8575 40.2495C92.9436 40.0853 93.08 39.9611 93.2666 39.877L93.402 40.0925Z" fill="black"/>
<path d="M96.315 44.0634C96.1099 44.2379 95.912 44.361 95.7213 44.4328C95.5327 44.5046 95.3296 44.5405 95.1123 44.5405C94.7534 44.5405 94.4776 44.4533 94.2848 44.2789C94.092 44.1024 93.9956 43.8777 93.9956 43.6048C93.9956 43.4447 94.0315 43.299 94.1033 43.1676C94.1771 43.0343 94.2725 42.9275 94.3894 42.8475C94.5083 42.7675 94.6416 42.7069 94.7893 42.6659C94.898 42.6372 95.062 42.6095 95.2814 42.5828C95.7285 42.5294 96.0576 42.4658 96.2689 42.3919C96.2709 42.316 96.2719 42.2678 96.2719 42.2472C96.2719 42.0215 96.2196 41.8625 96.1151 41.7701C95.9736 41.6449 95.7634 41.5823 95.4845 41.5823C95.224 41.5823 95.0313 41.6285 94.9062 41.7209C94.7831 41.8112 94.6919 41.9723 94.6324 42.2042L94.091 42.1303C94.1402 41.8984 94.2212 41.7116 94.334 41.57C94.4468 41.4264 94.6098 41.3166 94.8231 41.2407C95.0364 41.1627 95.2835 41.1237 95.5644 41.1237C95.8433 41.1237 96.0699 41.1565 96.2442 41.2222C96.4186 41.2879 96.5467 41.371 96.6288 41.4715C96.7108 41.57 96.7682 41.6952 96.801 41.8471C96.8195 41.9415 96.8287 42.1118 96.8287 42.3581V43.0968C96.8287 43.6119 96.84 43.9382 96.8625 44.0757C96.8871 44.2112 96.9343 44.3415 97.004 44.4667H96.4257C96.3683 44.3517 96.3314 44.2173 96.315 44.0634ZM96.2689 42.826C96.0679 42.908 95.7664 42.9778 95.3645 43.0353C95.1369 43.0681 94.9759 43.1051 94.8816 43.1461C94.7872 43.1871 94.7144 43.2477 94.6631 43.3277C94.6119 43.4057 94.5863 43.4929 94.5863 43.5894C94.5863 43.7371 94.6416 43.8603 94.7524 43.9588C94.8651 44.0573 95.0292 44.1065 95.2445 44.1065C95.4578 44.1065 95.6475 44.0603 95.8136 43.968C95.9797 43.8736 96.1017 43.7453 96.1797 43.5832C96.2391 43.458 96.2689 43.2733 96.2689 43.0291V42.826Z" fill="black"/>
<path d="M98.8989 43.9711L98.9789 44.4605C98.823 44.4933 98.6836 44.5098 98.5605 44.5098C98.3596 44.5098 98.2037 44.478 98.093 44.4143C97.9822 44.3507 97.9043 44.2676 97.8592 44.165C97.8141 44.0603 97.7915 43.8418 97.7915 43.5093V41.6285H97.3855V41.1976H97.7915V40.388L98.3421 40.0555V41.1976H98.8989V41.6285H98.3421V43.5401C98.3421 43.6981 98.3513 43.7997 98.3698 43.8449C98.3903 43.89 98.4221 43.9259 98.4652 43.9526C98.5103 43.9793 98.5739 43.9926 98.6559 43.9926C98.7174 43.9926 98.7984 43.9854 98.8989 43.9711Z" fill="black"/>
<path d="M99.4464 40.5911V39.954H100V40.5911H99.4464ZM99.4464 44.4667V41.1976H100V44.4667H99.4464Z" fill="black"/>
<path d="M32.7671 30.3332H39.2562V34.1167H27.6456V30.4673L33.8665 22.9272H27.6992V19.1437H39.1221V22.793L32.7671 30.3332Z" fill="black"/>
<path d="M49.1264 34.3313C47.6605 34.3313 46.3377 34.0183 45.1578 33.3922C43.9959 32.7661 43.0753 31.8716 42.396 30.7088C41.7346 29.5461 41.4038 28.1865 41.4038 26.6302C41.4038 25.0917 41.7435 23.7411 42.4228 22.5783C43.1021 21.3977 44.0316 20.4943 45.2115 19.8682C46.3913 19.2421 47.7141 18.929 49.18 18.929C50.6458 18.929 51.9687 19.2421 53.1485 19.8682C54.3283 20.4943 55.2579 21.3977 55.9372 22.5783C56.6165 23.7411 56.9561 25.0917 56.9561 26.6302C56.9561 28.1686 56.6075 29.5282 55.9104 30.7088C55.2311 31.8716 54.2926 32.7661 53.0949 33.3922C51.915 34.0183 50.5922 34.3313 49.1264 34.3313ZM49.1264 30.36C50.0023 30.36 50.7441 30.038 51.3519 29.394C51.9776 28.75 52.2904 27.8287 52.2904 26.6302C52.2904 25.4316 51.9865 24.5103 51.3788 23.8663C50.7888 23.2223 50.0559 22.9003 49.18 22.9003C48.2862 22.9003 47.5443 23.2223 46.9544 23.8663C46.3645 24.4924 46.0695 25.4137 46.0695 26.6302C46.0695 27.8287 46.3555 28.75 46.9276 29.394C47.5175 30.038 48.2504 30.36 49.1264 30.36Z" fill="black"/>
<path d="M69.1223 18.9827C70.8384 18.9827 72.2148 19.5551 73.2517 20.7C74.2885 21.827 74.8069 23.3833 74.8069 25.369V34.1167H70.2485V25.9862C70.2485 24.9844 69.9893 24.2062 69.4708 23.6517C68.9524 23.0971 68.2553 22.8198 67.3793 22.8198C66.5034 22.8198 65.8062 23.0971 65.2878 23.6517C64.7694 24.2062 64.5102 24.9844 64.5102 25.9862V34.1167H59.925V14.26H64.5102V21.1562C64.975 20.4943 65.6096 19.9666 66.414 19.573C67.2184 19.1794 68.1212 18.9827 69.1223 18.9827Z" fill="black"/>
<path d="M83.1147 14.26V34.1167H78.5294V14.26H83.1147Z" fill="black"/>
<path d="M89.2799 17.5873C88.4755 17.5873 87.814 17.3548 87.2956 16.8897C86.7951 16.4067 86.5448 15.8163 86.5448 15.1187C86.5448 14.4031 86.7951 13.8128 87.2956 13.3477C87.814 12.8647 88.4755 12.6232 89.2799 12.6232C90.0664 12.6232 90.71 12.8647 91.2105 13.3477C91.7289 13.8128 91.9881 14.4031 91.9881 15.1187C91.9881 15.8163 91.7289 16.4067 91.2105 16.8897C90.71 17.3548 90.0664 17.5873 89.2799 17.5873ZM91.5591 19.1437V34.1167H86.9739V19.1437H91.5591Z" fill="black"/>
<path fill-rule="evenodd" clip-rule="evenodd" d="M6.30782 46H18.6963C21.0642 46 22.9837 44.0791 22.9837 41.7096V15.3717C22.9837 14.5818 22.3438 13.9416 21.5546 13.9416H13.6822C12.893 13.9416 12.2531 14.5818 12.2531 15.3717V37.628C12.2531 37.9234 12.2087 38.2196 12.1112 38.4985C11.564 40.0638 10.9255 41.0929 10.3065 41.7681C9.9709 42.1342 9.64104 42.3963 9.3346 42.5834C8.99687 42.7896 8.68758 42.9047 8.43038 42.9677C7.97692 43.0788 7.68539 43.0277 7.68539 43.0277L2.39262 23.3539H0L6.30782 46ZM12.8861 43.1398H18.6963C19.4856 43.1398 20.1255 42.4995 20.1255 41.7096V16.8018H15.1113V37.628C15.1113 38.206 15.0249 38.8257 14.8091 39.443C14.2736 40.9747 13.6203 42.1918 12.8861 43.1398Z" fill="#0049D7"/>
<path d="M22.5487 4.95384C22.5487 7.68977 20.2764 9.90769 17.4734 9.90769C14.6704 9.90769 12.3981 7.68977 12.3981 4.95384C12.3981 2.21791 14.6704 0 17.4734 0C20.2764 0 22.5487 2.21791 22.5487 4.95384Z" fill="#0049D7"/>
<path d="M5.36527 20.3108H2.97265C4.80941 27.2461 8.55543 41.1877 8.55543 41.1877C8.55543 41.1877 6.50116 27.3877 5.36527 20.3108Z" fill="#0049D7"/>
<path d="M7.9754 17.6923H5.9453L9.8605 39.3477L7.9754 17.6923Z" fill="#0049D7"/>
<path d="M11.6006 16.0646H8.99045L10.8755 37.9323L11.6006 16.0646Z" fill="#0049D7"/>
</svg>
