<svg width="31" height="30" viewBox="0 0 31 30" fill="none" xmlns="http://www.w3.org/2000/svg">
<path opacity="0.5" fill-rule="evenodd" clip-rule="evenodd" d="M20.5983 11.9035C20.5983 16.8818 16.5311 20.9446 11.4804 20.9446C6.42974 20.9446 2.3625 16.8818 2.3625 11.9035C2.3625 6.92525 6.42974 2.8625 11.4804 2.8625C16.5311 2.8625 20.5983 6.92525 20.5983 11.9035ZM18.7456 20.7337C16.7666 22.3421 14.2369 23.3071 11.4804 23.3071C5.13996 23.3071 0 18.2015 0 11.9035C0 5.60554 5.13996 0.5 11.4804 0.5C17.8209 0.5 22.9608 5.60554 22.9608 11.9035C22.9608 14.6133 22.0093 17.1023 20.4201 19.0589L30.1136 27.484C30.606 27.9119 30.6582 28.658 30.2303 29.1504C29.8023 29.6428 29.0562 29.6951 28.5638 29.2671L18.7456 20.7337Z" fill="#303030"/>
</svg>
