<svg width="30" height="28" viewBox="0 0 30 28" fill="none" xmlns="http://www.w3.org/2000/svg">
<path d="M14.3889 0.928693C14.5789 0.357103 15.4211 0.357101 15.6111 0.928696L18.3696 9.22748C18.5923 9.89732 19.2259 10.3407 19.9297 10.3407H28.8564C29.5017 10.3407 29.7135 11.1137 29.2378 11.4515L22.0159 16.5805C21.4398 16.9896 21.1929 17.7213 21.4163 18.3933L24.1748 26.6921C24.3509 27.2218 23.7171 27.754 23.1823 27.3742L15.9604 22.2453C15.387 21.838 14.613 21.838 14.0396 22.2453L6.81771 27.3742C6.28293 27.754 5.64913 27.2218 5.82519 26.6921L8.58369 18.3933C8.80708 17.7213 8.56017 16.9896 7.98407 16.5805L0.762225 11.4515C0.286474 11.1137 0.498315 10.3407 1.14364 10.3407H10.0703C10.7741 10.3407 11.4077 9.89733 11.6304 9.22748L14.3889 0.928693Z" stroke="#4C4F6C"/>
</svg>
