<svg width="38" height="32" viewBox="0 0 38 32" fill="none" xmlns="http://www.w3.org/2000/svg">
<path d="M1.00001 19.2222V16L1 12.7778C1 11.1224 2.34315 9.78043 4 9.78043H9.925L19.2723 1.38696C20.2379 0.51997 21.775 1.20461 21.775 2.50164V16V29.4984C21.775 30.7954 20.2379 31.48 19.2723 30.613L9.92501 22.2196H4.00001C2.34315 22.2196 1.00001 20.8776 1.00001 19.2222Z" fill="#4C4F6C" stroke="#4C4F6C" stroke-width="1.46458" stroke-linecap="round"/>
<path d="M31.7231 5.13428C33.3229 6.25344 34.6348 7.735 35.5516 9.45782C36.4684 11.1806 36.9642 13.0958 36.9982 15.0467C37.0323 16.9976 36.6038 18.9289 35.7477 20.6826C34.8916 22.4363 33.6322 23.9627 32.0726 25.137" stroke="#4C4F6C" stroke-width="1.46458" stroke-linecap="round"/>
<path d="M27.8413 19.9283C28.6169 19.3856 29.253 18.6673 29.6975 17.832C30.1421 16.9967 30.3824 16.0681 30.3989 15.1223C30.4155 14.1764 30.2077 13.24 29.7926 12.3897C29.3775 11.5394 28.7669 10.7993 28.0107 10.23" stroke="#4C4F6C" stroke-width="1.46458" stroke-linecap="round"/>
</svg>
